<svg xmlns="http://www.w3.org/2000/svg" width="91" height="90" fill="none"><path fill="#2A3334" d="M69.148 67.5h11.25V45h-11.25zm5.625-18.281v7.031h4.22l-4.22 7.031V56.25h-4.218zM76.18 77.344h-2.813v2.812h2.813z"/><path fill="#2A3334" d="M83.21 40.781H66.337a1.406 1.406 0 0 0-1.406 1.407v30.937a1.406 1.406 0 0 0 1.406 1.406H83.21a1.406 1.406 0 0 0 1.406-1.406V42.188a1.407 1.407 0 0 0-1.406-1.407m0 28.125a1.406 1.406 0 0 1-1.405 1.406H67.742a1.406 1.406 0 0 1-1.406-1.406V43.594a1.406 1.406 0 0 1 1.406-1.407h14.063a1.407 1.407 0 0 1 1.406 1.407zm-46.405-9.844V42.189a1.407 1.407 0 0 0-1.407-1.407H7.273a1.406 1.406 0 0 0-1.406 1.407v16.874a1.406 1.406 0 0 0 1.406 1.407h28.125a1.406 1.406 0 0 0 1.407-1.407m-15.47-1.406v-7.031h-4.218l4.219-7.031v7.031h4.219zM22.742 63.281H19.93v1.407h2.812zM58.334 15.469h13.81l-.605-4.219H57.83zM55.002 11.25h-19.52l-.491 4.219h20.503zM59.15 22.5h14.006l-.604-4.219H58.658zM71.145 8.438l-.407-2.813H57.18l.324 2.813zM54.34 5.625H36.145l-.338 2.813h18.872zM31.827 18.281H17.933l-.605 4.219h14.006zM32.656 11.25h-13.71l-.605 4.219H32.15zM33.303 5.625H19.747l-.408 2.813h13.64zM55.831 18.281H34.653l-.492 4.219h22.162zM48.055 25.313H42.43v2.812h5.625zM60.71 77.344l-5.624-4.219v2.813h-2.813V67.5h-2.812v9.844a1.406 1.406 0 0 0 1.406 1.406h4.219v2.813zm-30.937 0 5.625 4.219V78.75h4.22a1.407 1.407 0 0 0 1.405-1.406V67.5h-2.812v8.438h-2.813v-2.813zM28.367 66.094H14.305v2.812h14.062z"/><path fill="#2A3334" d="M73.367 84.375H46.648V29.531h-2.812v54.844H22.742V70.313H19.93V85.78a1.406 1.406 0 0 0 1.406 1.406h53.437a1.406 1.406 0 0 0 1.407-1.406v-4.219h-2.813z"/></svg>